# xmcd
# 
# Track frame offsets:
#     187
#     23175
#     43575
# 
# Disc length: 967
# 
# Revision: 1
# Processed by: cddbd v1.5.2PL0 Copyright (c) Steve Scherf et al.
# Submitted via: fre:ac v1.0.17
# 
DISCID=1c03c503
DTITLE=BUCK-TICK - 月世界
DYEAR=1998
DGENRE=Rock
TTITLE0=月世界
TTITLE1=My baby Japanese.
TTITLE2=無知の涙 HOT remix#001
EXTD=
EXTT0=
EXTT1=
EXTT2=
PLAYORDER=
